<?xml version="1.0" standalone="no"?>
<!DOCTYPE svg PUBLIC "-//W3C//DTD SVG 20010904//EN"
 "http://www.w3.org/TR/2001/REC-SVG-20010904/DTD/svg10.dtd">
<svg version="1.0" xmlns="http://www.w3.org/2000/svg"
 width="360.000000pt" height="383.000000pt" viewBox="0 0 360.000000 383.000000"
 preserveAspectRatio="xMidYMid meet">

<g transform="translate(0.000000,383.000000) scale(0.100000,-0.100000)"
fill="#fff" stroke="none">
<path d="M1627 3710 c-308 -55 -557 -250 -715 -557 -84 -163 -124 -300 -158
-540 -4 -28 -9 -33 -33 -33 -56 0 -143 56 -256 166 -123 118 -164 148 -228
166 -56 15 -93 1 -141 -52 -57 -63 -69 -141 -40 -253 35 -135 103 -221 223
-281 65 -33 71 -39 81 -78 31 -117 79 -171 165 -187 57 -11 90 -34 130 -91 17
-23 49 -63 72 -87 l43 -45 10 -212 c18 -380 12 -470 -38 -616 -25 -73 -72
-163 -117 -225 -88 -123 -144 -214 -159 -259 -16 -45 -15 -50 1 -84 30 -60 58
-74 152 -74 67 0 100 7 192 37 155 52 158 51 289 -86 98 -101 109 -109 144
-109 53 0 69 11 177 116 53 52 101 94 106 94 17 0 39 -32 83 -119 49 -98 118
-175 192 -217 46 -25 63 -29 133 -29 70 0 89 4 146 32 69 34 104 72 198 211
45 67 90 102 132 102 28 0 79 -30 207 -124 80 -58 135 -86 168 -86 22 0 69 47
93 93 31 61 55 72 120 58 29 -6 74 -11 101 -11 41 0 52 4 69 26 12 15 21 34
21 43 0 29 -54 104 -140 195 -91 97 -138 182 -184 336 -65 219 -90 517 -67
802 l8 97 49 48 c27 27 60 68 74 92 32 55 66 79 131 91 29 6 68 22 87 36 34
26 71 92 72 127 0 43 31 77 95 106 110 50 184 146 220 286 25 98 15 171 -32
233 -86 114 -179 93 -362 -84 -118 -113 -142 -134 -186 -156 -30 -15 -135 -41
-141 -35 -2 2 -10 50 -19 108 -86 570 -330 910 -728 1010 -92 23 -355 35 -440
19z m273 -45 c435 -30 716 -328 824 -875 13 -69 26 -145 29 -169 l5 -43 -41 6
c-79 13 -82 12 -85 -11 -5 -31 27 -38 168 -38 111 0 117 1 179 33 43 23 101
70 180 146 116 113 178 156 225 156 36 0 82 -44 102 -97 15 -40 16 -54 6 -114
-24 -141 -94 -238 -206 -289 -75 -33 -98 -60 -115 -134 -14 -63 -53 -111 -97
-121 -90 -21 -108 -29 -144 -65 -22 -22 -48 -57 -59 -79 -12 -22 -37 -52 -57
-67 -32 -25 -47 -28 -125 -32 -66 -3 -89 -8 -89 -18 0 -22 35 -34 97 -34 l58
0 -7 -87 c-23 -310 8 -631 82 -855 48 -142 93 -221 181 -314 89 -95 134 -158
124 -173 -8 -14 -67 -14 -138 0 -49 10 -60 9 -93 -7 -22 -12 -46 -37 -61 -64
-39 -71 -56 -84 -90 -73 -15 6 -82 49 -148 97 -137 98 -176 115 -233 98 -50
-15 -92 -57 -181 -180 -62 -86 -81 -106 -127 -128 -30 -14 -78 -28 -111 -31
-50 -5 -68 -1 -115 21 -76 36 -148 116 -198 221 -44 92 -67 115 -119 115 -30
0 -47 -13 -135 -99 -56 -54 -112 -102 -125 -106 -21 -6 -37 6 -127 99 -57 58
-115 111 -129 116 -47 18 -119 11 -209 -20 -150 -52 -256 -50 -286 5 -18 33 4
89 72 186 127 182 158 232 187 308 67 175 75 257 58 676 l-8 200 58 -3 c65 -4
113 10 113 33 0 17 -3 17 -77 15 -103 -3 -151 26 -213 130 -33 56 -82 91 -147
106 -91 21 -123 53 -139 139 -10 60 -35 87 -117 128 -42 21 -90 54 -108 75
-65 74 -108 209 -94 298 5 37 16 57 45 86 68 69 118 48 294 -121 156 -151 199
-173 341 -179 108 -4 180 11 180 38 0 17 -30 19 -109 7 l-49 -7 7 63 c18 157
66 327 136 470 156 325 432 534 745 566 44 4 91 6 105 5 14 -2 63 -6 110 -9z"/>
<path d="M1395 3034 c-86 -47 -126 -116 -133 -225 -6 -101 16 -167 72 -224 81
-80 191 -80 268 2 79 83 98 231 43 339 -40 76 -94 116 -167 121 -36 2 -63 -2
-83 -13z m69 -100 c40 -39 25 -115 -24 -122 -46 -7 -68 68 -34 116 18 26 37
28 58 6z"/>
<path d="M2070 3039 c-41 -17 -91 -70 -116 -124 -29 -61 -32 -167 -7 -240 35
-103 142 -169 234 -145 140 38 210 246 134 396 -40 77 -94 116 -167 121 -29 1
-64 -2 -78 -8z m117 -97 c30 -19 36 -87 10 -119 -15 -20 -55 -15 -67 6 -31 59
10 143 57 113z"/>
<path d="M1539 2328 c-10 -155 77 -284 207 -304 133 -20 264 115 264 272 0 24
-4 45 -9 48 -5 3 -35 -6 -67 -22 -53 -24 -70 -27 -164 -27 -94 0 -111 3 -161
28 -68 33 -69 33 -70 5z"/>
</g>
</svg>
